<?xml version="1.0" encoding="UTF-8" standalone="no"?>
<!-- Created with Inkscape (http://www.inkscape.org/) -->
<svg
   xmlns:dc="http://purl.org/dc/elements/1.1/"
   xmlns:cc="http://web.resource.org/cc/"
   xmlns:rdf="http://www.w3.org/1999/02/22-rdf-syntax-ns#"
   xmlns:svg="http://www.w3.org/2000/svg"
   xmlns="http://www.w3.org/2000/svg"
   xmlns:xlink="http://www.w3.org/1999/xlink"
   xmlns:sodipodi="http://sodipodi.sourceforge.net/DTD/sodipodi-0.dtd"
   xmlns:inkscape="http://www.inkscape.org/namespaces/inkscape"
   width="744.09448819"
   height="1052.3622047"
   id="svg2"
   sodipodi:version="0.32"
   inkscape:version="0.44.1"
   sodipodi:docbase="/home/russ/Desktop"
   sodipodi:docname="creovel.svg"
   inkscape:export-filename="/home/russ/Desktop/creovel.png"
   inkscape:export-xdpi="67.059998"
   inkscape:export-ydpi="67.059998">
  <defs
     id="defs4">
    <linearGradient
       inkscape:collect="always"
       id="linearGradient9698">
      <stop
         style="stop-color:#888;stop-opacity:1;"
         offset="0"
         id="stop9700" />
      <stop
         style="stop-color:#888;stop-opacity:0;"
         offset="1"
         id="stop9702" />
    </linearGradient>
    <linearGradient
       id="linearGradient2776">
      <stop
         id="stop2778"
         offset="0"
         style="stop-color:#8d5422;stop-opacity:1;" />
      <stop
         id="stop2780"
         offset="1"
         style="stop-color:white;stop-opacity:1;" />
    </linearGradient>
    <linearGradient
       id="linearGradient3041"
       inkscape:collect="always">
      <stop
         id="stop3043"
         offset="0"
         style="stop-color:#000000;stop-opacity:1;" />
      <stop
         id="stop3045"
         offset="1"
         style="stop-color:#000000;stop-opacity:0;" />
    </linearGradient>
    <linearGradient
       id="linearGradient3077">
      <stop
         id="stop3079"
         offset="0"
         style="stop-color:#98a0a9;stop-opacity:1;" />
      <stop
         id="stop3081"
         offset="1"
         style="stop-color:#c3d0dd;stop-opacity:1;" />
    </linearGradient>
    <linearGradient
       id="linearGradient3087">
      <stop
         id="stop3089"
         offset="0"
         style="stop-color:#3465a4;stop-opacity:1;" />
      <stop
         style="stop-color:#9fbce1;stop-opacity:1;"
         offset="0"
         id="stop3095" />
      <stop
         id="stop2242"
         offset="0"
         style="stop-color:#6b95ca;stop-opacity:1;" />
      <stop
         style="stop-color:#3d6aa5;stop-opacity:1;"
         offset="0.75"
         id="stop2244" />
      <stop
         id="stop3091"
         offset="1"
         style="stop-color:#386eb4;stop-opacity:1;" />
    </linearGradient>
    <linearGradient
       id="linearGradient2257">
      <stop
         id="stop2259"
         offset="0"
         style="stop-color:#ffffff;stop-opacity:1;" />
      <stop
         id="stop2261"
         offset="1"
         style="stop-color:#ffffff;stop-opacity:0;" />
    </linearGradient>
    <linearGradient
       id="linearGradient2250"
       inkscape:collect="always">
      <stop
         id="stop2252"
         offset="0"
         style="stop-color:#ffffff;stop-opacity:1;" />
      <stop
         id="stop2254"
         offset="1"
         style="stop-color:#ffffff;stop-opacity:0;" />
    </linearGradient>
    <linearGradient
       id="linearGradient7470">
      <stop
         id="stop7472"
         offset="0"
         style="stop-color:#b6b6b6;stop-opacity:1;" />
      <stop
         style="stop-color:#f2f2f2;stop-opacity:1;"
         offset="0.5"
         id="stop7474" />
      <stop
         id="stop7476"
         offset="0.67612958"
         style="stop-color:#fafafa;stop-opacity:1;" />
      <stop
         style="stop-color:#d8d8d8;stop-opacity:1;"
         offset="0.84051722"
         id="stop7478" />
      <stop
         style="stop-color:#f2f2f2;stop-opacity:1;"
         offset="0.875"
         id="stop7480" />
      <stop
         id="stop7482"
         offset="1"
         style="stop-color:#dbdbdb;stop-opacity:1;" />
    </linearGradient>
    <linearGradient
       inkscape:collect="always"
       xlink:href="#linearGradient9698"
       id="linearGradient9704"
       x1="324.5"
       y1="536.54523"
       x2="177"
       y2="529.54523"
       gradientUnits="userSpaceOnUse" />
    <radialGradient
       inkscape:collect="always"
       xlink:href="#linearGradient3041"
       id="radialGradient10891"
       gradientUnits="userSpaceOnUse"
       gradientTransform="matrix(1,0,0,0.374558,0,24.47041)"
       cx="24.8125"
       cy="39.125"
       fx="24.8125"
       fy="39.125"
       r="17.6875" />
    <linearGradient
       inkscape:collect="always"
       xlink:href="#linearGradient2776"
       id="linearGradient10893"
       gradientUnits="userSpaceOnUse"
       gradientTransform="translate(-5.342004,0)"
       x1="347.14285"
       y1="616.37622"
       x2="347.14285"
       y2="549.46332" />
    <linearGradient
       inkscape:collect="always"
       xlink:href="#linearGradient3077"
       id="linearGradient10897"
       gradientUnits="userSpaceOnUse"
       gradientTransform="matrix(3.611236,0,0,3.611236,531.3556,545.6295)"
       x1="38.227654"
       y1="13.602527"
       x2="37.53537"
       y2="6.6285896" />
    <linearGradient
       inkscape:collect="always"
       xlink:href="#linearGradient2250"
       id="linearGradient10899"
       gradientUnits="userSpaceOnUse"
       gradientTransform="matrix(4.111761,0,0,4.111761,519.6473,522.6501)"
       x1="31.177404"
       y1="19.821514"
       x2="40.859177"
       y2="9.6568537" />
    <linearGradient
       inkscape:collect="always"
       xlink:href="#linearGradient3087"
       id="linearGradient10901"
       gradientUnits="userSpaceOnUse"
       gradientTransform="matrix(3.611236,0,0,3.611236,530.0788,543.076)"
       x1="9.7503242"
       y1="32.28376"
       x2="16.915297"
       y2="39.443218" />
    <linearGradient
       inkscape:collect="always"
       xlink:href="#linearGradient2257"
       id="linearGradient10903"
       gradientUnits="userSpaceOnUse"
       gradientTransform="matrix(4.141588,-0.108408,0.108408,4.141588,526.199,522.9757)"
       x1="12.004697"
       y1="35.688461"
       x2="10.650805"
       y2="33.194965" />
    <linearGradient
       inkscape:collect="always"
       xlink:href="#linearGradient7470"
       id="linearGradient10905"
       gradientUnits="userSpaceOnUse"
       gradientTransform="translate(-0.8478,-0.88498)"
       x1="1112.8412"
       y1="526.23254"
       x2="1220.8943"
       y2="450.31732" />
    <radialGradient
       inkscape:collect="always"
       xlink:href="#linearGradient3041"
       id="radialGradient10907"
       gradientUnits="userSpaceOnUse"
       gradientTransform="matrix(1,0,0,0.374558,0,24.47041)"
       cx="24.8125"
       cy="39.125"
       fx="24.8125"
       fy="39.125"
       r="17.6875" />
    <linearGradient
       inkscape:collect="always"
       xlink:href="#linearGradient9698"
       id="linearGradient10909"
       gradientUnits="userSpaceOnUse"
       gradientTransform="translate(3.98138,-0.385528)"
       x1="324.5"
       y1="536.54523"
       x2="177"
       y2="529.54523" />
    <linearGradient
       inkscape:collect="always"
       xlink:href="#linearGradient9698"
       id="linearGradient10911"
       gradientUnits="userSpaceOnUse"
       x1="324.5"
       y1="536.54523"
       x2="177"
       y2="529.54523" />
    <radialGradient
       inkscape:collect="always"
       xlink:href="#linearGradient3041"
       id="radialGradient10913"
       gradientUnits="userSpaceOnUse"
       gradientTransform="matrix(1,0,0,0.374558,0,24.47041)"
       cx="24.8125"
       cy="39.125"
       fx="24.8125"
       fy="39.125"
       r="17.6875" />
    <radialGradient
       inkscape:collect="always"
       xlink:href="#linearGradient3041"
       id="radialGradient11289"
       gradientUnits="userSpaceOnUse"
       gradientTransform="matrix(1,0,0,0.374558,0,24.47041)"
       cx="24.8125"
       cy="39.125"
       fx="24.8125"
       fy="39.125"
       r="17.6875" />
    <radialGradient
       inkscape:collect="always"
       xlink:href="#linearGradient3041"
       id="radialGradient11291"
       gradientUnits="userSpaceOnUse"
       gradientTransform="matrix(1,0,0,0.374558,0,24.47041)"
       cx="24.8125"
       cy="39.125"
       fx="24.8125"
       fy="39.125"
       r="17.6875" />
    <mask
       maskUnits="userSpaceOnUse"
       id="mask2204">
      <path
         sodipodi:type="arc"
         style="opacity:1;fill:#f09e9e;fill-opacity:1;stroke:white;stroke-width:0.5;stroke-miterlimit:4;stroke-dasharray:none;stroke-opacity:0.58823529"
         id="path2202"
         sodipodi:cx="1046"
         sodipodi:cy="498.36218"
         sodipodi:rx="318"
         sodipodi:ry="79.5"
         d="M 1364 498.36218 A 318 79.5 0 1 1  728,498.36218 A 318 79.5 0 1 1  1364 498.36218 z"
         transform="matrix(0.526918,0,0,0.589814,-202.5279,336.1811)" />
    </mask>
    <linearGradient
       inkscape:collect="always"
       xlink:href="#linearGradient2250"
       id="linearGradient3100"
       x1="331.48984"
       y1="550.41675"
       x2="331.48984"
       y2="659.25122"
       gradientUnits="userSpaceOnUse" />
  </defs>
  <sodipodi:namedview
     id="base"
     pagecolor="#ffffff"
     bordercolor="#666666"
     borderopacity="1.0"
     gridtolerance="10000"
     guidetolerance="10"
     objecttolerance="10"
     inkscape:pageopacity="0.0"
     inkscape:pageshadow="2"
     inkscape:zoom="1.4142136"
     inkscape:cx="315.02025"
     inkscape:cy="477.34588"
     inkscape:document-units="px"
     inkscape:current-layer="layer1"
     inkscape:window-width="1041"
     inkscape:window-height="982"
     inkscape:window-x="0"
     inkscape:window-y="17" />
  <metadata
     id="metadata7">
    <rdf:RDF>
      <cc:Work
         rdf:about="">
        <dc:format>image/svg+xml</dc:format>
        <dc:type
           rdf:resource="http://purl.org/dc/dcmitype/StillImage" />
      </cc:Work>
    </rdf:RDF>
  </metadata>
  <g
     inkscape:label="Layer 1"
     inkscape:groupmode="layer"
     id="layer1">
    <path
       sodipodi:type="arc"
       style="opacity:0.08588957;color:black;fill:url(#radialGradient10891);fill-opacity:1;fill-rule:nonzero;stroke:none;stroke-width:1;stroke-linecap:butt;stroke-linejoin:miter;marker:none;marker-start:none;marker-mid:none;marker-end:none;stroke-miterlimit:4;stroke-dasharray:none;stroke-dashoffset:0;stroke-opacity:1;visibility:visible;display:inline;overflow:visible"
       id="path3039"
       sodipodi:cx="24.8125"
       sodipodi:cy="39.125"
       sodipodi:rx="17.6875"
       sodipodi:ry="6.625"
       d="M 42.5 39.125 A 17.6875 6.625 0 1 1  7.125,39.125 A 17.6875 6.625 0 1 1  42.5 39.125 z"
       transform="matrix(15.24948,0,0,5.348496,23.10472,346.7969)" />
    <g
       id="g9660"
       transform="matrix(1.897741,0,0,1.897741,-236.3068,-606.8301)">
      <text
         id="text1878"
         y="627.89233"
         x="449.41812"
         style="font-size:10.06269264px;font-style:normal;font-weight:normal;fill:#c4c4c4;fill-opacity:1;stroke:none;stroke-width:1px;stroke-linecap:butt;stroke-linejoin:miter;stroke-opacity:1;font-family:Bitstream Vera Sans"
         xml:space="preserve"><tspan
           style="font-size:8.3855772px;text-align:end;text-anchor:end;fill:#c4c4c4;fill-opacity:1"
           y="627.89233"
           x="449.41812"
           id="tspan1880"
           sodipodi:role="line">A PHP FRAMEWORK</tspan></text>
      <text
         id="text1872"
         y="615.2193"
         x="220.37227"
         style="font-size:12px;font-style:normal;font-weight:normal;fill:url(#linearGradient10893);fill-opacity:1;stroke:white;stroke-width:1px;stroke-linecap:butt;stroke-linejoin:miter;stroke-opacity:0.58823529;font-family:Bitstream Vera Sans"
         xml:space="preserve"><tspan
           dx="0 0 0 0"
           style="font-size:72px;font-style:italic;fill:url(#linearGradient10893);fill-opacity:1;stroke:white;stroke-opacity:0.58823529"
           y="615.2193"
           x="220.37227"
           id="tspan1874"
           sodipodi:role="line"><tspan
             dx="-17.142857 -6.8977537 -2.8571429 -2.8571429"
             id="tspan1876"
             style="font-style:normal;font-weight:normal;fill:url(#linearGradient10893);fill-opacity:1;stroke:white;stroke-opacity:0.58823529"><tspan
               dx="0 -23.120955 -16.489355 -21.956657"
               id="tspan4478"
               style="font-weight:bold;fill:url(#linearGradient10893);stroke:white;stroke-opacity:0.58823529">creo</tspan><tspan
               dx="-25.492199 -23.362558 -21.847328"
               id="tspan4480"
               style="font-style:italic;fill:url(#linearGradient10893);stroke:white;stroke-opacity:0.58823529">vel</tspan></tspan></tspan></text>
      <a
         style="opacity:0.36021501"
         id="a6719" />
    </g>
    <g
       id="g10803"
       transform="matrix(1.897741,0,0,1.897741,-259.6932,-614.4211)">
      <g
         id="g9620">
        <g
           id="g9548"
           transform="matrix(0.243257,0.150094,-0.150094,0.243257,488.4854,151.016)">
          <g
             id="g9562"
             transform="translate(-1161.283,1129.767)">
            <g
               transform="matrix(1.252041,-1.129889,1.129889,1.252041,-306.5561,512.0867)"
               id="g7546">
              <path
                 style="color:black;fill:url(#linearGradient10897);fill-opacity:1;fill-rule:nonzero;stroke:#878f9d;stroke-width:4.11175966;stroke-linecap:butt;stroke-linejoin:miter;marker:none;marker-start:none;marker-mid:none;marker-end:none;stroke-miterlimit:4;stroke-dasharray:none;stroke-dashoffset:0;stroke-opacity:1;visibility:visible;display:inline;overflow:visible"
                 d="M 612.15696,646.51846 C 615.58429,643.58076 666.77691,591.22141 666.77691,591.22141 L 657.00091,582.79962 L 604.63798,637.19386 C 602.15526,639.67659 608.99713,649.22689 612.15696,646.51846 z "
                 id="path7548"
                 sodipodi:nodetypes="ccccc" />
              <path
                 sodipodi:nodetypes="ccccc"
                 id="path7550"
                 d="M 611.75892,642.24254 C 614.41829,639.96307 665.31214,587.84474 665.31214,587.84474 L 660.91851,584.18269 L 608.7974,638.83755 C 606.87096,640.76398 609.30709,644.3441 611.75892,642.24254 z "
                 style="opacity:0.53977272;color:black;fill:none;fill-opacity:1;fill-rule:nonzero;stroke:url(#linearGradient10899);stroke-width:4.11176205;stroke-linecap:butt;stroke-linejoin:miter;marker:none;marker-start:none;marker-mid:none;marker-end:none;stroke-miterlimit:4;stroke-dasharray:none;stroke-dashoffset:0;stroke-opacity:1;visibility:visible;display:inline;overflow:visible" />
              <path
                 style="color:black;fill:url(#linearGradient10901);fill-opacity:1;fill-rule:nonzero;stroke:#204a87;stroke-width:4.11175966;stroke-linecap:butt;stroke-linejoin:miter;marker:none;marker-start:none;marker-mid:none;marker-end:none;stroke-miterlimit:4;stroke-dashoffset:0;stroke-opacity:1;visibility:visible;display:inline;overflow:visible"
                 d="M 554.45464,701.97042 C 559.86813,707.99509 574.90524,710.72092 581.57353,699.05142 C 584.48098,693.96338 590.18332,679.71462 615.62354,656.81842 C 619.89626,652.97733 624.42234,644.19063 620.5854,639.45089 L 610.6545,629.51999 C 606.59186,625.00594 595.29948,627.11153 590.66651,633.42976 C 576.8561,652.32821 554.29357,667.37185 549.20553,669.18901 C 539.46921,672.66627 540.56503,687.01822 547.00646,693.84514 L 554.45464,701.97042 z "
                 id="path7552"
                 sodipodi:nodetypes="ccccccscc" />
              <path
                 sodipodi:type="arc"
                 style="opacity:0.60227272;color:black;fill:white;fill-opacity:1;fill-rule:nonzero;stroke:none;stroke-width:1;stroke-linecap:butt;stroke-linejoin:miter;marker:none;marker-start:none;marker-mid:none;marker-end:none;stroke-miterlimit:4;stroke-dasharray:none;stroke-dashoffset:0;stroke-opacity:1;visibility:visible;display:inline;overflow:visible"
                 id="path7554"
                 sodipodi:cx="19.003494"
                 sodipodi:cy="28.20101"
                 sodipodi:rx="1.767767"
                 sodipodi:ry="1.767767"
                 d="M 20.771261 28.20101 A 1.767767 1.767767 0 1 1  17.235727,28.20101 A 1.767767 1.767767 0 1 1  20.771261 28.20101 z"
                 transform="matrix(2.347306,0,0,2.347306,557.2898,568.912)" />
              <path
                 style="color:black;fill:none;fill-opacity:1;fill-rule:nonzero;stroke:url(#linearGradient10903);stroke-width:9.43447304;stroke-linecap:round;stroke-linejoin:round;marker:none;marker-start:none;marker-mid:none;marker-end:none;stroke-miterlimit:4;stroke-dasharray:none;stroke-dashoffset:0;stroke-opacity:1;visibility:visible;display:inline;overflow:visible"
                 d="M 596.45049,644.46023 C 596.45049,644.46023 566.96961,674.47449 553.15921,679.56254"
                 id="path7556"
                 sodipodi:nodetypes="cc" />
              <path
                 sodipodi:nodetypes="csccccscc"
                 id="path7558"
                 d="M 555.85547,697.34521 C 561.78161,704.52277 574.76766,706.23167 578.84499,695.82144 C 581.64636,688.66898 592.55204,672.52508 612.55149,654.52557 C 615.91043,651.50596 619.46853,644.59843 616.45218,640.87235 L 608.64515,633.06532 C 605.45137,629.51667 596.57404,631.17194 592.93189,636.13893 C 582.07505,650.99566 558.05041,670.42918 552.24293,672.34556 C 543.25136,675.31265 544.93637,685.59077 550.0002,690.95765 L 555.85547,697.34521 z "
                 style="opacity:0.19886367;color:black;fill:none;fill-opacity:1;fill-rule:nonzero;stroke:white;stroke-width:4.11175871;stroke-linecap:butt;stroke-linejoin:miter;marker:none;marker-start:none;marker-mid:none;marker-end:none;stroke-miterlimit:4;stroke-dasharray:none;stroke-dashoffset:0;stroke-opacity:1;visibility:visible;display:inline;overflow:visible" />
            </g>
            <path
               style="fill:#888a85;fill-opacity:1;fill-rule:evenodd;stroke:#888;stroke-width:9.85585785;stroke-linecap:butt;stroke-linejoin:miter;stroke-miterlimit:4;stroke-dasharray:none;stroke-opacity:1"
               d="M 1243.8994,428.8896 C 1241.2556,428.8896 1239.1182,432.34263 1239.1182,436.60835 L 1239.1182,439.85835 C 1227.1791,441.72155 1208.7824,442.64301 1207.087,430.98335 C 1206.9083,429.75491 1162.205,431.43138 1161.7744,431.60835 C 1147.4977,437.47604 1113.1063,459.93384 1107.7744,507.3271 C 1104.3232,538.005 1110.0963,468.23216 1164.2432,472.5771 C 1168.5745,472.92069 1167.3682,493.67085 1167.3682,493.67085 L 1203.3682,493.67085 C 1203.3682,493.67086 1200.508,460.79121 1239.1182,468.92085 L 1239.1182,472.0771 C 1239.1182,476.34282 1241.2556,479.79584 1243.8994,479.79585 L 1258.5557,479.79585 C 1261.1996,479.79585 1263.337,476.34282 1263.337,472.0771 L 1263.337,436.60835 C 1263.337,432.34263 1261.1996,428.8896 1258.5557,428.8896 L 1243.8994,428.8896 z "
               id="path9543" />
            <path
               style="fill:url(#linearGradient10905);fill-opacity:1;fill-rule:evenodd;stroke:none;stroke-width:8.80000019;stroke-linecap:butt;stroke-linejoin:miter;stroke-miterlimit:4;stroke-dasharray:none;stroke-opacity:1"
               d="M 1243.8994,428.8896 C 1241.2556,428.8896 1239.1182,432.34263 1239.1182,436.60835 L 1239.1182,439.85835 C 1227.1791,441.72155 1208.7824,442.64301 1207.087,430.98335 C 1206.9083,429.75491 1162.205,431.43138 1161.7744,431.60835 C 1147.4977,437.47604 1113.1063,459.93384 1107.7744,507.3271 C 1104.3232,538.005 1110.0963,468.23216 1164.2432,472.5771 C 1168.5745,472.92069 1167.3682,493.67085 1167.3682,493.67085 L 1203.3682,493.67085 C 1203.3682,493.67086 1200.508,460.79121 1239.1182,468.92085 L 1239.1182,472.0771 C 1239.1182,476.34282 1241.2556,479.79584 1243.8994,479.79585 L 1258.5557,479.79585 C 1261.1996,479.79585 1263.337,476.34282 1263.337,472.0771 L 1263.337,436.60835 C 1263.337,432.34263 1261.1996,428.8896 1258.5557,428.8896 L 1243.8994,428.8896 z "
               id="path7727" />
            <path
               style="opacity:0.45161288;fill:white;fill-opacity:1;fill-rule:evenodd;stroke:none;stroke-width:8.80000019;stroke-linecap:butt;stroke-linejoin:miter;stroke-miterlimit:4;stroke-dasharray:none;stroke-opacity:1"
               d="M 1243.8994,428.88961 C 1241.2556,428.88958 1239.1181,432.34264 1239.1181,436.60836 L 1239.1181,439.85836 C 1227.179,441.72153 1208.7823,442.64302 1207.0869,430.98336 C 1206.9082,429.75489 1162.205,431.43139 1161.7744,431.60836 C 1147.4977,437.47602 1113.1063,459.93385 1107.7744,507.32711 C 1104.3233,538.00498 1110.0962,468.23217 1164.2431,472.57711 C 1168.5744,472.92067 1167.3681,493.67086 1167.3681,493.67086 L 1203.3681,493.67086 C 1203.3681,493.67084 1200.5079,460.79122 1239.1181,468.92086 L 1239.1181,472.07711 C 1239.1181,476.3428 1241.2556,479.79585 1243.8994,479.79586 L 1258.5557,479.79586 C 1261.1995,479.79583 1263.3369,476.34283 1263.3369,472.07711 L 1263.3369,436.60836 C 1263.3369,432.34261 1261.1996,428.88961 1258.5557,428.88961 L 1243.8994,428.88961 z M 1244.1181,432.73336 L 1258.3681,432.73336 C 1258.4008,432.77118 1258.4943,432.87016 1258.6807,433.17086 C 1259.0834,433.82112 1259.4933,435.11852 1259.4931,436.60836 L 1259.4931,472.07711 C 1259.4931,473.56694 1259.0833,474.86434 1258.6807,475.51461 C 1258.4793,475.83975 1258.3581,475.92419 1258.3369,475.95211 L 1244.1494,475.95211 C 1244.1282,475.9242 1244.0069,475.83974 1243.8057,475.51461 C 1243.4029,474.86435 1242.9931,473.56691 1242.9931,472.07711 L 1242.9931,468.92086 C 1242.999,467.09342 1241.7194,465.51359 1239.9307,465.13961 C 1229.7755,463.00137 1221.9265,463.46887 1215.8994,465.73336 C 1209.8723,467.99785 1205.8463,472.09429 1203.4307,476.32711 C 1200.3743,481.68242 1199.7845,486.39893 1199.6494,489.82711 L 1171.2431,489.82711 C 1171.3135,487.7839 1171.4317,486.5071 1171.2744,483.07711 C 1171.1484,480.32993 1170.9181,477.53906 1170.3057,475.07711 C 1169.9994,473.84614 1169.6172,472.69299 1168.8681,471.51461 C 1168.1192,470.33623 1166.6266,468.89764 1164.5557,468.73336 C 1139.3597,466.71155 1123.5468,480.09547 1114.5244,492.67086 C 1118.7396,477.37001 1126.1989,465.45619 1134.3057,456.45211 C 1144.7054,444.90116 1156.1896,438.18397 1162.8057,435.38961 C 1163.1192,435.37135 1163.497,435.35231 1164.0244,435.32711 C 1165.2682,435.26769 1167.0618,435.18947 1169.1807,435.10836 C 1173.4181,434.94614 1179.0433,434.75169 1184.6494,434.60836 C 1190.2555,434.46503 1195.8416,434.37701 1199.9931,434.38961 C 1201.7119,434.39483 1202.9717,434.40738 1204.0557,434.45211 C 1205.0571,437.04209 1206.7939,439.17806 1208.8994,440.67086 C 1211.7543,442.695 1215.1575,443.7402 1218.6807,444.29586 C 1225.7268,445.40718 1233.5402,444.63399 1239.7119,443.67086 C 1241.5993,443.38876 1242.9954,441.76672 1242.9931,439.85836 L 1242.9931,436.60836 C 1242.9931,435.11853 1243.4028,433.82113 1243.8057,433.17086 C 1243.9919,432.87016 1244.0855,432.77117 1244.1181,432.73336 z "
               id="path8630" />
          </g>
        </g>
        <path
           sodipodi:type="arc"
           style="opacity:0.11290325;color:black;fill:url(#radialGradient10907);fill-opacity:1;fill-rule:nonzero;stroke:none;stroke-width:1;stroke-linecap:butt;stroke-linejoin:miter;marker:none;marker-start:none;marker-mid:none;marker-end:none;stroke-miterlimit:4;stroke-dasharray:none;stroke-dashoffset:0;stroke-opacity:1;visibility:visible;display:inline;overflow:visible"
           id="path9584"
           sodipodi:cx="24.8125"
           sodipodi:cy="39.125"
           sodipodi:rx="17.6875"
           sodipodi:ry="6.625"
           d="M 42.5 39.125 A 17.6875 6.625 0 1 1  7.125,39.125 A 17.6875 6.625 0 1 1  42.5 39.125 z"
           transform="matrix(2.728663,-2.105585,1.883399,1.973172,102.3571,572.4069)" />
      </g>
      <g
         transform="matrix(0.995344,9.638205e-2,-9.638205e-2,0.995344,54.6913,-21.7602)"
         style="stroke:url(#linearGradient9704)"
         id="g9694">
        <path
           style="fill:none;fill-rule:evenodd;stroke:url(#linearGradient10909);stroke-width:1px;stroke-linecap:butt;stroke-linejoin:miter;stroke-opacity:1"
           d="M 182.48138,526.97666 C 182.48138,526.97666 218.98138,518.47666 242.48138,527.47666"
           id="path9690"
           sodipodi:nodetypes="cs" />
        <path
           style="fill:none;fill-rule:evenodd;stroke:url(#linearGradient10911);stroke-width:1px;stroke-linecap:butt;stroke-linejoin:miter;stroke-opacity:1"
           d="M 171,540.36218 C 171,540.36218 191.5,530.86218 226,536.36218"
           id="path9692"
           sodipodi:nodetypes="cs" />
      </g>
    </g>
    <g
       id="g10726"
       transform="matrix(1.897741,0,0,1.897741,-814.1689,-603.0346)">
      <path
         transform="matrix(0.982594,0,0,1.346651,571.6194,514.6745)"
         d="M 42.5 39.125 A 17.6875 6.625 0 1 1  7.125,39.125 A 17.6875 6.625 0 1 1  42.5 39.125 z"
         sodipodi:ry="6.625"
         sodipodi:rx="17.6875"
         sodipodi:cy="39.125"
         sodipodi:cx="24.8125"
         id="path10714"
         style="opacity:0.08588957;color:black;fill:url(#radialGradient10913);fill-opacity:1;fill-rule:nonzero;stroke:none;stroke-width:1;stroke-linecap:butt;stroke-linejoin:miter;marker:none;marker-start:none;marker-mid:none;marker-end:none;stroke-miterlimit:4;stroke-dasharray:none;stroke-dashoffset:0;stroke-opacity:1;visibility:visible;display:inline;overflow:visible"
         sodipodi:type="arc" />
      <path
         transform="matrix(1.307682,0,0,1.610802,551.363,565.5416)"
         d="M 42.5 39.125 A 17.6875 6.625 0 1 1  7.125,39.125 A 17.6875 6.625 0 1 1  42.5 39.125 z"
         sodipodi:ry="6.625"
         sodipodi:rx="17.6875"
         sodipodi:cy="39.125"
         sodipodi:cx="24.8125"
         id="path10718"
         style="opacity:0.08588957;color:black;fill:url(#radialGradient11291);fill-opacity:1;fill-rule:nonzero;stroke:none;stroke-width:1;stroke-linecap:butt;stroke-linejoin:miter;marker:none;marker-start:none;marker-mid:none;marker-end:none;stroke-miterlimit:4;stroke-dasharray:none;stroke-dashoffset:0;stroke-opacity:1;visibility:visible;display:inline;overflow:visible"
         sodipodi:type="arc" />
      <path
         transform="matrix(0.863427,0,0,1.068266,599.184,587.6681)"
         d="M 42.5 39.125 A 17.6875 6.625 0 1 1  7.125,39.125 A 17.6875 6.625 0 1 1  42.5 39.125 z"
         sodipodi:ry="6.625"
         sodipodi:rx="17.6875"
         sodipodi:cy="39.125"
         sodipodi:cx="24.8125"
         id="path10722"
         style="opacity:0.08588957;color:black;fill:url(#radialGradient11289);fill-opacity:1;fill-rule:nonzero;stroke:none;stroke-width:1;stroke-linecap:butt;stroke-linejoin:miter;marker:none;marker-start:none;marker-mid:none;marker-end:none;stroke-miterlimit:4;stroke-dasharray:none;stroke-dashoffset:0;stroke-opacity:1;visibility:visible;display:inline;overflow:visible"
         sodipodi:type="arc" />
    </g>
    <g
       id="g9789"
       style="stroke:#6a6a6a;stroke-opacity:1"
       transform="matrix(1.897741,0,0,1.897741,-987.641,-678.5744)">
      <path
         id="path9753"
         d="M 663.875,564.11218 L 665.875,562.61218 L 667.375,564.11218 L 672.625,564.48718 L 677.75,568.48718 L 668.125,571.23718 L 663.875,564.11218 z "
         style="fill:#cfcfcf;fill-opacity:1;fill-rule:evenodd;stroke:#6a6a6a;stroke-width:1px;stroke-linecap:butt;stroke-linejoin:miter;stroke-opacity:1" />
      <path
         id="path9755"
         d="M 665.625,563.11218 L 670.75,559.86218 L 677.625,566.11218 L 677.25,568.73718 L 667.5,566.36218 L 665.625,563.11218 z "
         style="fill:#eaeaea;fill-opacity:1;fill-rule:evenodd;stroke:#6a6a6a;stroke-width:1px;stroke-linecap:butt;stroke-linejoin:miter;stroke-opacity:1" />
    </g>
    <g
       id="g9781"
       transform="matrix(1.897741,0,0,1.897741,-1058.599,-481.584)"
       style="stroke:#6a6a6a;stroke-opacity:1">
      <path
         id="path9769"
         d="M 748.625,557.11218 L 743.5,561.61218 L 743.625,564.36218 L 746.5,567.11218 L 749.875,565.86218 L 751.125,559.61218 L 751.5,557.11218 L 748.625,557.11218 z "
         style="fill:#eaeaea;fill-opacity:1;fill-rule:evenodd;stroke:#6a6a6a;stroke-width:1px;stroke-linecap:butt;stroke-linejoin:miter;stroke-opacity:1" />
      <path
         id="path9771"
         d="M 752.67888,557.86218 L 746.55388,566.86218 L 753.05388,567.48718 L 752.67888,557.86218 z "
         style="fill:#cfcfcf;fill-opacity:1;fill-rule:evenodd;stroke:#6a6a6a;stroke-width:1px;stroke-linecap:butt;stroke-linejoin:miter;stroke-opacity:1" />
    </g>
    <g
       id="g9785"
       style="stroke:#6a6a6a;stroke-opacity:1"
       transform="matrix(1.897741,0,0,1.897741,-1048.313,-482.9312)">
      <path
         id="path9759"
         d="M 690.625,561.98718 L 690.75,567.61218 L 693.25,566.61218 L 694.625,565.61218 L 701.625,566.11218 L 703,567.48718 L 708.25,562.48718 L 703.375,555.73718 L 692,561.23718 L 690.625,561.98718 z "
         style="fill:#cfcfcf;fill-opacity:1;fill-rule:evenodd;stroke:#6a6a6a;stroke-width:1px;stroke-linecap:butt;stroke-linejoin:miter;stroke-opacity:1" />
      <path
         id="path9757"
         d="M 690.875,561.86218 L 696.125,554.86218 L 703.625,555.86218 L 697.625,562.48718 L 690.875,561.86218 z "
         style="fill:#eaeaea;fill-opacity:1;fill-rule:evenodd;stroke:#6a6a6a;stroke-width:1px;stroke-linecap:butt;stroke-linejoin:miter;stroke-opacity:1" />
    </g>
    <g
       id="g9777"
       transform="matrix(1.897741,0,0,1.897741,-1260.574,-533.4489)"
       style="stroke:#6a6a6a;stroke-opacity:1">
      <path
         id="path9775"
         d="M 827.25,587.11218 L 823,592.61218 L 823,595.11218 L 825.125,596.36218 L 830.75,596.48718 L 831.875,590.98718 L 827.25,587.11218 z "
         style="fill:#cfcfcf;fill-opacity:1;fill-rule:evenodd;stroke:#6a6a6a;stroke-width:1px;stroke-linecap:butt;stroke-linejoin:miter;stroke-opacity:1" />
      <path
         id="path9773"
         d="M 831.5,582.48718 L 827,585.61218 L 825,591.23718 L 828,594.86218 L 831.5,594.48718 L 835.25,590.11218 L 831.5,582.48718 z "
         style="fill:#eaeaea;fill-opacity:1;fill-rule:evenodd;stroke:#6a6a6a;stroke-width:1px;stroke-linecap:butt;stroke-linejoin:miter;stroke-opacity:1" />
    </g>
    <g
       id="g9797"
       style="stroke:#6a6a6a;stroke-opacity:1"
       transform="matrix(1.897741,0,0,1.897741,-1060.985,-662.8366)">
      <path
         id="path9767"
         d="M 714.75,583.61218 L 709.125,588.61218 L 714.875,593.73718 L 719,600.23718 L 728,599.61218 L 717.75,585.36218 L 714.75,583.61218 z "
         style="fill:#cfcfcf;fill-opacity:1;fill-rule:evenodd;stroke:#6a6a6a;stroke-width:1px;stroke-linecap:butt;stroke-linejoin:miter;stroke-opacity:1" />
      <path
         id="path9765"
         d="M 714.625,583.48718 L 717.125,586.98718 L 718.625,593.48718 L 722.5,597.48718 L 726.125,600.11218 L 732.75,600.36218 L 732,597.23718 L 718.25,582.11218 L 714.625,583.48718 z "
         style="fill:#eaeaea;fill-opacity:1;fill-rule:evenodd;stroke:#6a6a6a;stroke-width:1px;stroke-linecap:butt;stroke-linejoin:miter;stroke-opacity:1" />
    </g>
    <g
       id="g9793"
       style="stroke:#6a6a6a;stroke-opacity:1"
       transform="matrix(1.897741,0,0,1.897741,-948.7096,-721.7504)">
      <path
         id="path9761"
         d="M 667.375,606.11218 L 671.5,605.11218 L 675,599.48718 L 678.875,598.23718 L 678.25,603.73718 L 675.875,607.11218 L 675.875,611.73718 L 667.375,611.61218 L 667.375,606.11218 z "
         style="fill:#cfcfcf;fill-opacity:1;fill-rule:evenodd;stroke:#6a6a6a;stroke-width:1px;stroke-linecap:butt;stroke-linejoin:miter;stroke-opacity:1" />
      <path
         id="path9763"
         d="M 668,610.11218 L 665.125,600.61218 L 666,594.48718 L 669.125,594.48718 L 673.125,591.61218 L 679.125,596.86218 L 675.125,604.98718 L 668,610.11218 z "
         style="fill:#eaeaea;fill-opacity:1;fill-rule:evenodd;stroke:#6a6a6a;stroke-width:1px;stroke-linecap:butt;stroke-linejoin:miter;stroke-opacity:1" />
    </g>
    <g
       id="g2182"
       transform="matrix(1.897741,0,0,1.897741,-236.1068,-607.9465)"
       mask="url(#mask2204)"
       style="fill-opacity:1.0;fill:url(#linearGradient3100);opacity:0.30890052">
      <text
         id="text2188"
         y="615.2193"
         x="220.37227"
         style="font-size:12px;font-style:normal;font-weight:normal;fill:url(#linearGradient3100);fill-opacity:1.0;stroke:none;stroke-width:1px;stroke-linecap:butt;stroke-linejoin:miter;stroke-opacity:0.58823529;font-family:Bitstream Vera Sans"
         xml:space="preserve"><tspan
           dx="0 0 0 0"
           style="font-size:72px;font-style:italic;fill:url(#linearGradient3100);fill-opacity:1.0;stroke:none;stroke-opacity:0.58823529"
           y="615.2193"
           x="220.37227"
           id="tspan2190"
           sodipodi:role="line"><tspan
             dx="-17.142857 -6.8977537 -2.8571429 -2.8571429"
             id="tspan2192"
             style="font-style:normal;font-weight:normal;fill:url(#linearGradient3100);fill-opacity:1.0;stroke:none;stroke-opacity:0.58823529"><tspan
               dx="0 -23.120955 -16.489355 -21.956657"
               id="tspan2194"
               style="font-weight:bold;fill:url(#linearGradient3100);stroke:none;stroke-opacity:0.58823529;fill-opacity:1.0">creo</tspan><tspan
               dx="-25.492199 -23.362558 -21.847328"
               id="tspan2196"
               style="font-style:italic;fill:url(#linearGradient3100);stroke:none;stroke-opacity:0.58823529;fill-opacity:1.0">vel</tspan></tspan></tspan></text>
      <a
         style="opacity:0.36021501;fill-opacity:1.0;fill:url(#linearGradient3100)"
         id="a2198" />
    </g>
  </g>
</svg>
